<svg width="24" height="17" viewBox="0 0 24 17" fill="none" xmlns="http://www.w3.org/2000/svg">
<path d="M0 6.375C0 2.85281 2.87679 0 6.42857 0H6.85714C7.80536 0 8.57143 0.759687 8.57143 1.7C8.57143 2.64031 7.80536 3.4 6.85714 3.4H6.42857C4.77321 3.4 3.42857 4.73344 3.42857 6.375V6.8H6.85714C8.74821 6.8 10.2857 8.32469 10.2857 10.2V13.6C10.2857 15.4753 8.74821 17 6.85714 17H3.42857C1.5375 17 0 15.4753 0 13.6V11.9V10.2V6.375ZM13.7143 6.375C13.7143 2.85281 16.5911 0 20.1429 0H20.5714C21.5196 0 22.2857 0.759687 22.2857 1.7C22.2857 2.64031 21.5196 3.4 20.5714 3.4H20.1429C18.4875 3.4 17.1429 4.73344 17.1429 6.375V6.8H20.5714C22.4625 6.8 24 8.32469 24 10.2V13.6C24 15.4753 22.4625 17 20.5714 17H17.1429C15.2518 17 13.7143 15.4753 13.7143 13.6V11.9V10.2V6.375Z" fill="#FF813A"/>
</svg>
