<svg width="93" height="20" viewBox="0 0 93 20" fill="none" xmlns="http://www.w3.org/2000/svg">
<rect x="0.570709" width="1.90223" height="17.6907" fill="#00D4E6"/>
<path d="M1.14136 17.6907V0H4.48928V8.1574L11.2344 0H15.3208L7.91106 8.72252L15.7885 17.6907H11.5544L4.48928 9.63163V17.6907H1.14136Z" fill="#FF3A3A"/>
<rect y="1.33157" width="1.90223" height="17.6907" fill="#00D4E6"/>
<path d="M0.380432 19.0223V1.33157H3.72836V9.48897L10.4734 1.33157H14.5599L7.15014 10.0541L15.0276 19.0223H10.7935L3.72836 10.9632V19.0223H0.380432Z" fill="#FF813A"/>
<path d="M23.3864 19.0223C22.4249 19.0223 21.5814 18.807 20.8559 18.3764C20.1304 17.9459 19.5642 17.3531 19.1572 16.5981C18.7561 15.8372 18.5556 14.9642 18.5556 13.9792C18.5556 12.9824 18.762 12.1065 19.1749 11.3515C19.5878 10.5906 20.157 9.99779 20.8825 9.5731C21.608 9.14842 22.4426 8.93608 23.3864 8.93608C24.3478 8.93608 25.1913 9.15137 25.9168 9.58195C26.6482 10.0125 27.2174 10.6083 27.6243 11.3692C28.0313 12.1242 28.2348 12.9942 28.2348 13.9792C28.2348 14.9701 28.0284 15.846 27.6155 16.6069C27.2085 17.3619 26.6393 17.9547 25.9079 18.3853C25.1824 18.81 24.3419 19.0223 23.3864 19.0223ZM23.3864 16.775C24.159 16.775 24.7341 16.5155 25.1116 15.9964C25.495 15.4715 25.6867 14.7991 25.6867 13.9792C25.6867 13.1298 25.4921 12.4515 25.1028 11.9443C24.7194 11.437 24.1472 11.1834 23.3864 11.1834C22.8614 11.1834 22.4308 11.3013 22.0946 11.5373C21.7584 11.7732 21.5077 12.1006 21.3426 12.5193C21.1833 12.9381 21.1037 13.4248 21.1037 13.9792C21.1037 14.8345 21.2954 15.5157 21.6788 16.023C22.0681 16.5244 22.6373 16.775 23.3864 16.775Z" fill="white"/>
<path d="M34.0557 19.0223C33.1769 19.0223 32.4071 18.8011 31.7465 18.3588C31.0859 17.9164 30.5698 17.3147 30.1982 16.5538C29.8325 15.793 29.6496 14.9347 29.6496 13.9792C29.6496 13.006 29.8354 12.1419 30.207 11.3869C30.5845 10.626 31.1124 10.0273 31.7907 9.5908C32.469 9.15432 33.2653 8.93608 34.1796 8.93608C35.0879 8.93608 35.8518 9.15727 36.4711 9.59965C37.0904 10.042 37.5594 10.6437 37.8779 11.4046C38.1964 12.1654 38.3556 13.0237 38.3556 13.9792C38.3556 14.9347 38.1934 15.793 37.869 16.5538C37.5505 17.3147 37.0727 17.9164 36.4357 18.3588C35.7987 18.8011 35.0054 19.0223 34.0557 19.0223ZM34.445 16.8812C34.9818 16.8812 35.4094 16.7603 35.7279 16.5185C36.0523 16.2766 36.2853 15.9375 36.4269 15.501C36.5684 15.0645 36.6392 14.5572 36.6392 13.9792C36.6392 13.4012 36.5684 12.8939 36.4269 12.4574C36.2853 12.0209 36.0582 11.6818 35.7456 11.4399C35.4389 11.1981 35.0348 11.0772 34.5335 11.0772C33.9967 11.0772 33.5543 11.2099 33.2063 11.4753C32.8642 11.7349 32.6106 12.0858 32.4455 12.5282C32.2803 12.9647 32.1977 13.4483 32.1977 13.9792C32.1977 14.516 32.2773 15.0055 32.4366 15.4479C32.5959 15.8844 32.8406 16.2324 33.171 16.4919C33.5013 16.7514 33.9259 16.8812 34.445 16.8812ZM36.6392 18.7569V12.2097H36.3384V6.01637H38.7626V18.7569H36.6392Z" fill="white"/>
<path d="M45.6814 19.0223C44.7023 19.0223 43.8382 18.8129 43.0891 18.3941C42.3459 17.9695 41.762 17.3885 41.3373 16.6512C40.9185 15.908 40.7091 15.0586 40.7091 14.1031C40.7091 13.0591 40.9155 12.1507 41.3284 11.378C41.7413 10.6053 42.3105 10.0066 43.036 9.58195C43.7615 9.15137 44.5961 8.93608 45.5399 8.93608C46.5426 8.93608 47.3949 9.17201 48.0968 9.64388C48.7987 10.1158 49.3178 10.7793 49.654 11.6346C49.9902 12.4899 50.1082 13.4955 50.0079 14.6516H47.6279V13.7669C47.6279 12.7936 47.4716 12.0947 47.159 11.67C46.8523 11.2394 46.348 11.0241 45.646 11.0241C44.8262 11.0241 44.2216 11.2748 43.8323 11.7762C43.4489 12.2716 43.2572 13.006 43.2572 13.9792C43.2572 14.8699 43.4489 15.56 43.8323 16.0495C44.2216 16.5332 44.7908 16.775 45.5399 16.775C46.0117 16.775 46.4158 16.6718 46.752 16.4654C47.0882 16.2589 47.3448 15.9611 47.5217 15.5718L49.9283 16.2619C49.5685 17.1348 48.9993 17.8132 48.2207 18.2968C47.448 18.7805 46.6016 19.0223 45.6814 19.0223ZM42.514 14.6516V12.8644H48.8489V14.6516H42.514Z" fill="white"/>
<path d="M51.988 18.7569L52.0057 6.01637H54.4476V13.8022L57.6858 9.2015H60.6586L57.208 13.9792L60.8886 18.7569H57.7566L54.4476 14.1562V18.7569H51.988Z" fill="white"/>
<path d="M65.3258 19.04C64.5767 19.04 63.9663 18.9132 63.4944 18.6596C63.0225 18.4059 62.6539 18.0845 62.3884 17.6952C62.1289 17.3059 61.9431 16.9019 61.831 16.4831C61.719 16.0584 61.6511 15.672 61.6275 15.324C61.604 14.976 61.5922 14.7224 61.5922 14.5631V9.2015H64.0341V13.7138C64.0341 13.932 64.0459 14.2122 64.0695 14.5543C64.0931 14.8905 64.1668 15.2297 64.2907 15.5718C64.4145 15.9139 64.6151 16.1999 64.8923 16.43C65.1754 16.66 65.5736 16.775 66.0867 16.775C66.2932 16.775 66.5144 16.7426 66.7503 16.6777C66.9862 16.6128 67.2074 16.489 67.4139 16.3061C67.6203 16.1174 67.7884 15.8431 67.9182 15.4833C68.0538 15.1176 68.1217 14.6398 68.1217 14.05L69.5019 14.7047C69.5019 15.4597 69.3485 16.1675 69.0418 16.8281C68.7351 17.4887 68.2721 18.0225 67.6528 18.4295C67.0393 18.8365 66.2637 19.04 65.3258 19.04ZM68.4225 18.7569V15.5895H68.1217V9.2015H70.5459V18.7569H68.4225Z" fill="white"/>
<path d="M73.408 18.7569V16.3504H75.8145V18.7569H73.408Z" fill="white"/>
<path d="M78.8636 7.87437V5.75095H81.2701V7.87437H78.8636ZM78.8636 18.7569V9.2015H81.2701V18.7569H78.8636Z" fill="white"/>
<path d="M87.7979 19.0223C86.919 19.0223 86.1493 18.8011 85.4886 18.3588C84.828 17.9164 84.3119 17.3147 83.9403 16.5538C83.5746 15.793 83.3918 14.9347 83.3918 13.9792C83.3918 13.006 83.5776 12.1419 83.9492 11.3869C84.3267 10.626 84.8546 10.0273 85.5329 9.5908C86.2112 9.15432 87.0075 8.93608 87.9217 8.93608C88.8301 8.93608 89.5939 9.15727 90.2133 9.59965C90.8326 10.042 91.3015 10.6437 91.62 11.4046C91.9385 12.1654 92.0978 13.0237 92.0978 13.9792C92.0978 14.9347 91.9356 15.793 91.6112 16.5538C91.2927 17.3147 90.8149 17.9164 90.1779 18.3588C89.5408 18.8011 88.7475 19.0223 87.7979 19.0223ZM88.1872 16.8812C88.7239 16.8812 89.1516 16.7603 89.4701 16.5185C89.7945 16.2766 90.0275 15.9375 90.169 15.501C90.3106 15.0645 90.3814 14.5572 90.3814 13.9792C90.3814 13.4012 90.3106 12.8939 90.169 12.4574C90.0275 12.0209 89.8004 11.6818 89.4878 11.4399C89.181 11.1981 88.777 11.0772 88.2756 11.0772C87.7389 11.0772 87.2965 11.2099 86.9485 11.4753C86.6064 11.7349 86.3528 12.0858 86.1876 12.5282C86.0225 12.9647 85.9399 13.4483 85.9399 13.9792C85.9399 14.516 86.0195 15.0055 86.1788 15.4479C86.338 15.8844 86.5828 16.2324 86.9131 16.4919C87.2434 16.7514 87.6681 16.8812 88.1872 16.8812ZM90.3814 18.7569V12.2097H90.0805V6.01637H92.5048V18.7569H90.3814Z" fill="white"/>
</svg>
